<svg width="28" height="30" viewBox="0 0 28 30" fill="none" xmlns="http://www.w3.org/2000/svg">
<path d="M11.1847 4.45467H9.98888V9.90885H11.1847V4.45467Z" fill="white"/>
<path d="M10.0625 4.639V9.72641H10.88V4.639H10.0625Z" fill="white"/>
<path d="M22.9861 7.72342V17.7367L18.3863 21.5793V10.5873H19.5821V19.0822L21.5065 17.4041L21.654 17.2768L21.7884 17.159V7.72342H22.9861Z" fill="white"/>
<path d="M18.4602 10.5873H19.2776V19.4831L21.9797 17.2482V7.91342H22.7971V17.6454L18.4602 21.1802V10.5873Z" fill="white"/>
<path d="M0 4.45456L5.59328 0L11.1866 4.45456L5.59328 8.90913L0 4.45456ZM5.59139 7.3774L9.26032 4.45646L5.59139 1.53553L1.92434 4.45646L5.59139 7.3774Z" fill="white"/>
<path d="M0.302621 4.45481L5.59127 0.241599L10.8799 4.45481L5.59127 8.66612L0.302621 4.45481ZM5.59127 7.61899L9.56485 4.45481L5.59127 1.29063L1.61958 4.45481L5.59127 7.61899Z" fill="white"/>
<path d="M16.7989 4.45267L22.3884 0L27.9779 4.45267L22.3884 8.95284L16.7989 4.45267ZM22.3884 7.4135L26.0592 4.45646L22.3884 1.53173L18.7176 4.45646L22.3884 7.4135Z" fill="white"/>
<path d="M17.1015 4.45291L22.3883 0.241599L27.675 4.45291L22.3883 8.70983L17.1015 4.45291ZM22.3883 7.657L26.3637 4.45671L22.3883 1.29063L18.4128 4.45671L22.3883 7.657Z" fill="white"/>
<path d="M8.39737 10.5873L13.9907 6.13274L19.5839 10.5873L13.9907 15.0419L8.39737 10.5873ZM13.9907 13.5101L17.6596 10.5873L13.9907 7.66447L10.3217 10.5873L13.9907 13.5101Z" fill="white"/>
<path d="M8.70207 10.5873L13.9907 6.37404L19.2794 10.5873L13.9907 14.8005L8.70207 10.5873ZM13.9907 13.7514L17.9643 10.5873L13.9907 7.42307L10.0171 10.5873L13.9907 13.7514Z" fill="white"/>
<path d="M14.1063 29.4316C13.9663 29.3917 13.8244 29.3556 13.6825 29.3214L13.3911 29.2511V13.6259H14.5869V29.5685L14.1063 29.4316Z" fill="white"/>
<path d="M14.1574 29.2493C14.0154 29.2094 13.8697 29.1714 13.7259 29.1372L13.5802 29.103V13.818H14.3977V29.3196L14.1574 29.2493Z" fill="white"/>
<path d="M0 23.8009V4.45456L1.19585 4.45467V23.016L13.934 28.6545L15.0126 28.3371L15.4629 29.3463L13.9946 29.9943L0 23.8009Z" fill="white"/>
<path d="M27.9779 23.8009V4.45467H26.782V23.016L14.0438 28.6545L12.9596 28.2231L12.4847 29.3254L13.9909 30L27.9779 23.8009Z" fill="white"/>
<path d="M0.302621 23.6773V4.45481L1.12194 4.45467V23.1395L13.9377 28.8655L14.8648 28.3999L15.1941 29.1524L13.9888 29.7833L0.302621 23.6773Z" fill="white"/>
<path d="M17.9948 4.45288L16.7989 4.45267V9.90706H17.9948V4.45288Z" fill="white"/>
<path d="M16.9881 4.639V9.72641H17.8055V4.639H16.9881Z" fill="white"/>
<path d="M9.59329 10.5873V21.5793L4.9934 17.7367V7.72342H6.18926V17.159L6.3236 17.2768L6.47119 17.4041L8.39554 19.0822V14.8652L8.39743 14.6352L8.39737 10.5873L9.59329 10.5873Z" fill="white"/>
<path d="M5.18258 17.6454V7.91342H6V17.2482L8.70203 19.4831L8.70207 10.5873L9.51946 10.5873V21.1802L5.18258 17.6454Z" fill="white"/>
<path d="M9.59345 15.0153V15.268L9.51966 15.3193L8.70034 15.88L8.39571 16.0871L6.47119 17.4041L5.68988 17.94L5.18278 17.1912L5.01627 16.9461L8.39743 14.6352L9.03904 14.1962L9.51966 14.905L9.59345 15.0153Z" fill="white"/>
<path d="M9.44965 15.1368L8.98985 14.4584L5.28117 16.9954L5.38714 17.1532L5.52716 17.3603L5.55365 17.3983L5.74098 17.6739L9.44965 15.1368Z" fill="white"/>
<path d="M22.9615 16.9461L22.795 17.1912L22.2879 17.94L21.5065 17.4041L19.5821 16.089L19.2775 15.88L18.4601 15.3212L18.3863 15.2699V15.0134L18.4601 14.9031L18.9407 14.1962L19.2775 14.4261L19.5821 14.6352L22.9615 16.9461Z" fill="white"/>
</svg>
