<svg width="103" height="30" viewBox="0 0 103 30" fill="none" xmlns="http://www.w3.org/2000/svg">
<path d="M11.1847 4.45467H9.98888V9.90885H11.1847V4.45467Z" fill="white"/>
<path d="M10.0625 4.639V9.72641H10.88V4.639H10.0625Z" fill="white"/>
<path d="M22.9861 7.72342V17.7367L18.3863 21.5793V10.5873H19.5821V19.0822L21.5065 17.4041L21.654 17.2768L21.7884 17.159V7.72342H22.9861Z" fill="white"/>
<path d="M18.4602 10.5873H19.2776V19.4831L21.9797 17.2482V7.91342H22.7971V17.6454L18.4602 21.1802V10.5873Z" fill="white"/>
<path d="M0 4.45456L5.59328 0L11.1866 4.45456L5.59328 8.90913L0 4.45456ZM5.59139 7.3774L9.26032 4.45646L5.59139 1.53553L1.92434 4.45646L5.59139 7.3774Z" fill="white"/>
<path d="M0.302621 4.45481L5.59127 0.241599L10.8799 4.45481L5.59127 8.66612L0.302621 4.45481ZM5.59127 7.61899L9.56485 4.45481L5.59127 1.29063L1.61958 4.45481L5.59127 7.61899Z" fill="white"/>
<path d="M16.7989 4.45267L22.3884 0L27.9779 4.45267L22.3884 8.95284L16.7989 4.45267ZM22.3884 7.4135L26.0592 4.45646L22.3884 1.53173L18.7176 4.45646L22.3884 7.4135Z" fill="white"/>
<path d="M17.1015 4.45291L22.3883 0.241599L27.675 4.45291L22.3883 8.70983L17.1015 4.45291ZM22.3883 7.657L26.3637 4.45671L22.3883 1.29063L18.4128 4.45671L22.3883 7.657Z" fill="white"/>
<path d="M8.39737 10.5873L13.9907 6.13274L19.5839 10.5873L13.9907 15.0419L8.39737 10.5873ZM13.9907 13.5101L17.6596 10.5873L13.9907 7.66447L10.3217 10.5873L13.9907 13.5101Z" fill="white"/>
<path d="M8.70207 10.5873L13.9907 6.37404L19.2794 10.5873L13.9907 14.8005L8.70207 10.5873ZM13.9907 13.7514L17.9643 10.5873L13.9907 7.42307L10.0171 10.5873L13.9907 13.7514Z" fill="white"/>
<path d="M14.1063 29.4316C13.9663 29.3917 13.8244 29.3556 13.6825 29.3214L13.3911 29.2511V13.6259H14.5869V29.5685L14.1063 29.4316Z" fill="white"/>
<path d="M14.1574 29.2493C14.0154 29.2094 13.8697 29.1714 13.7259 29.1372L13.5802 29.103V13.818H14.3977V29.3196L14.1574 29.2493Z" fill="white"/>
<path d="M0 23.8009V4.45456L1.19585 4.45467V23.016L13.934 28.6545L15.0126 28.3371L15.4629 29.3463L13.9946 29.9943L0 23.8009Z" fill="white"/>
<path d="M27.9779 23.8009V4.45467H26.782V23.016L14.0438 28.6545L12.9596 28.2231L12.4847 29.3254L13.9909 30L27.9779 23.8009Z" fill="white"/>
<path d="M0.302621 23.6773V4.45481L1.12194 4.45467V23.1395L13.9377 28.8655L14.8648 28.3999L15.1941 29.1524L13.9888 29.7833L0.302621 23.6773Z" fill="white"/>
<path d="M17.9948 4.45288L16.7989 4.45267V9.90706H17.9948V4.45288Z" fill="white"/>
<path d="M16.9881 4.639V9.72641H17.8055V4.639H16.9881Z" fill="white"/>
<path d="M9.59329 10.5873V21.5793L4.9934 17.7367V7.72342H6.18926V17.159L6.3236 17.2768L6.47119 17.4041L8.39554 19.0822V14.8652L8.39743 14.6352L8.39737 10.5873L9.59329 10.5873Z" fill="white"/>
<path d="M5.18258 17.6454V7.91342H6V17.2482L8.70203 19.4831L8.70207 10.5873L9.51946 10.5873V21.1802L5.18258 17.6454Z" fill="white"/>
<path d="M9.59345 15.0153V15.268L9.51966 15.3193L8.70034 15.88L8.39571 16.0871L6.47119 17.4041L5.68988 17.94L5.18278 17.1912L5.01627 16.9461L8.39743 14.6352L9.03904 14.1962L9.51966 14.905L9.59345 15.0153Z" fill="white"/>
<path d="M9.44965 15.1368L8.98985 14.4584L5.28117 16.9954L5.38714 17.1532L5.52716 17.3603L5.55365 17.3983L5.74098 17.6739L9.44965 15.1368Z" fill="white"/>
<path d="M22.9615 16.9461L22.795 17.1912L22.2879 17.94L21.5065 17.4041L19.5821 16.089L19.2775 15.88L18.4601 15.3212L18.3863 15.2699V15.0134L18.4601 14.9031L18.9407 14.1962L19.2775 14.4261L19.5821 14.6352L22.9615 16.9461Z" fill="white"/>
<path d="M48.2114 21.2976H44.7021L43.2399 10.0874H42.9475L41.4853 21.2976H37.976L36.0752 9.2101H38.0248L39.6332 20.4203H39.9256L41.3391 9.2101H44.8484L46.2618 20.4203H46.5543L48.1627 9.2101H50.1123L48.2114 21.2976Z" fill="white"/>
<path d="M54.3357 21.2976H52.4348V4.23864H54.3357V11.4034H54.6281C55.0018 10.6236 55.5217 10.0062 56.1878 9.55128C56.8702 9.09637 57.6987 8.86892 58.6735 8.86892C59.9895 8.86892 61.0537 9.30758 61.866 10.1849C62.6946 11.046 63.1088 12.3457 63.1088 14.0841V21.2976H61.208V14.474C61.208 13.2068 60.9237 12.2563 60.355 11.6227C59.7864 10.9891 59.0147 10.6723 58.0399 10.6723C56.8864 10.6723 55.9766 11.0703 55.3105 11.8664C54.6606 12.6463 54.3357 13.6942 54.3357 15.0101V21.2976Z" fill="white"/>
<path d="M68.4289 5.60335C68.4289 5.1322 68.5914 4.73416 68.9163 4.40923C69.2575 4.06805 69.6637 3.89746 70.1348 3.89746C70.606 3.89746 71.004 4.06805 71.3289 4.40923C71.6701 4.73416 71.8407 5.1322 71.8407 5.60335C71.8407 6.07451 71.6701 6.48067 71.3289 6.82185C71.004 7.14678 70.606 7.30925 70.1348 7.30925C69.6637 7.30925 69.2575 7.14678 68.9163 6.82185C68.5914 6.48067 68.4289 6.07451 68.4289 5.60335ZM64.9684 19.5429H69.2088V10.9647H65.407V9.2101H71.1096V19.5429H75.0575V21.2976H64.9684V19.5429Z" fill="white"/>
<path d="M87.5423 19.5429V21.2976H77.0145V18.2757L85.6415 11.2572V10.9647H77.1608V9.2101H87.2499V12.1345L78.5742 19.2505V19.5429H87.5423Z" fill="white"/>
<path d="M103 15.4001C103 16.4073 102.83 17.3009 102.489 18.0807C102.164 18.8443 101.725 19.4942 101.173 20.0303C100.62 20.5502 99.9703 20.9483 99.223 21.2245C98.4919 21.5007 97.7283 21.6388 96.9322 21.6388C96.1199 21.6388 95.3481 21.5007 94.617 21.2245C93.8859 20.9483 93.2442 20.5502 92.6918 20.0303C92.1394 19.4942 91.6927 18.8443 91.3515 18.0807C91.0265 17.3009 90.8641 16.4073 90.8641 15.4001V15.1076C90.8641 14.1166 91.0265 13.2393 91.3515 12.4757C91.6927 11.6958 92.1394 11.0378 92.6918 10.5017C93.2605 9.96557 93.9103 9.5594 94.6414 9.28321C95.3725 9.00702 96.1361 8.86892 96.9322 8.86892C97.7283 8.86892 98.4919 9.00702 99.223 9.28321C99.9541 9.5594 100.596 9.96557 101.148 10.5017C101.717 11.0378 102.164 11.6958 102.489 12.4757C102.83 13.2393 103 14.1166 103 15.1076V15.4001ZM96.9322 19.8354C97.5171 19.8354 98.0532 19.7379 98.5406 19.5429C99.0442 19.3317 99.4829 19.0312 99.8566 18.6413C100.23 18.2513 100.523 17.7883 100.734 17.2522C100.945 16.6998 101.051 16.0824 101.051 15.4001V15.1076C101.051 14.4578 100.945 13.8648 100.734 13.3286C100.523 12.7762 100.23 12.3051 99.8566 11.9152C99.4829 11.5252 99.0442 11.2247 98.5406 11.0135C98.037 10.786 97.5008 10.6723 96.9322 10.6723C96.3636 10.6723 95.8274 10.786 95.3238 11.0135C94.8201 11.2247 94.3815 11.5252 94.0078 11.9152C93.6341 12.3051 93.3417 12.7762 93.1305 13.3286C92.9193 13.8648 92.8137 14.4578 92.8137 15.1076V15.4001C92.8137 16.0824 92.9193 16.6998 93.1305 17.2522C93.3417 17.7883 93.6341 18.2513 94.0078 18.6413C94.3815 19.0312 94.812 19.3317 95.2994 19.5429C95.803 19.7379 96.3473 19.8354 96.9322 19.8354Z" fill="white"/>
</svg>
